<svg width="29" height="29" viewBox="0 0 29 29" fill="none" xmlns="http://www.w3.org/2000/svg">
<path d="M27.3337 13.4934L23.6803 11.3734C24.0003 11.0934 24.307 10.7334 24.5337 10.3334C25.6403 8.4267 24.987 5.97337 23.067 4.8667C21.9203 4.20003 20.5737 4.20003 19.4403 4.68003L19.4537 4.6667L18.2803 5.1867L18.1337 3.9067L18.1203 3.92003C18.0003 2.7067 17.2937 1.53337 16.147 0.866699C14.227 -0.233301 11.787 0.426699 10.667 2.33337C10.4403 2.73337 10.2937 3.17337 10.2137 3.60003L6.54699 1.49337C5.26699 0.760033 3.64033 1.1867 2.90699 2.4667L0.906992 5.93337C0.533659 6.57337 0.760325 7.3867 1.40033 7.7467L3.70699 9.08003L9.33366 12.3334H0.666992V25.6667C0.666992 27.1467 1.86699 28.3334 3.33366 28.3334H24.667C26.147 28.3334 27.3337 27.1467 27.3337 25.6667V18.8267L28.307 17.1334C29.0403 15.8534 28.6137 14.2267 27.3337 13.4934ZM19.9203 7.6667C20.2803 7.00003 21.107 6.81337 21.7337 7.17337C22.3737 7.5467 22.6003 8.33337 22.227 9.00003C21.8537 9.6667 21.0403 9.85337 20.4003 9.49337C19.7737 9.12003 19.547 8.33337 19.9203 7.6667ZM16.7603 10.4667L26.0003 15.8L24.667 18.1067L15.427 12.7734L16.7603 10.4667ZM12.667 25.6667H3.33366V15H12.667V25.6667ZM13.1203 11.44L3.88033 6.1067L5.21366 3.80003L14.4537 9.13337L13.1203 11.44ZM13.4803 5.49337C12.8403 5.12003 12.627 4.33337 12.987 3.6667C13.3337 3.00003 14.1737 2.81337 14.8137 3.17337C15.4537 3.5467 15.667 4.33337 15.2937 5.00003C14.9337 5.6667 14.1203 5.85337 13.4803 5.49337ZM15.3337 25.6667V15.8L24.667 21.1867V25.6667H15.3337Z" fill="#003366"/>
</svg>
