<?xml version="1.0" encoding="utf-8"?>
<!-- Generator: Adobe Illustrator 29.5.1, SVG Export Plug-In . SVG Version: 9.03 Build 0)  -->
<svg version="1.0" id="katman_1" xmlns="http://www.w3.org/2000/svg" xmlns:xlink="http://www.w3.org/1999/xlink" x="0px" y="0px"
	 viewBox="0 0 174.14 152" style="enable-background:new 0 0 174.14 152;" xml:space="preserve">
<style type="text/css">
	.st0{fill:url(#SVGID_1_);}
	.st1{fill-rule:evenodd;clip-rule:evenodd;fill:url(#SVGID_00000152247811960593281240000014988390146476810934_);}
	.st2{fill-rule:evenodd;clip-rule:evenodd;fill:url(#SVGID_00000060013085387710160110000014907575110940791709_);}
	.st3{fill:url(#SVGID_00000119824223124397038660000017500185628155661472_);}
</style>
<linearGradient id="SVGID_1_" gradientUnits="userSpaceOnUse" x1="51.4492" y1="998.431" x2="171.0394" y2="1032.3445" gradientTransform="matrix(1 0 0 1 0 -926)">
	<stop  offset="0" style="stop-color:#8797FF"/>
	<stop  offset="1" style="stop-color:#AAA8FF"/>
</linearGradient>
<path class="st0" d="M172.26,86.56c6.75-15.14-26.82-57.65-58.93-75.17C93.08-2.3,72.1-0.47,67.72,5.55
	C58.41,18.68,98.74,30,125.74,42.95c-5.84,2.55-11.31,7.12-14.41,12.77c-10.03-10.95-32.11-20.43-58.02-12.77
	c-17.52,5.11-31.93,17.33-37.59,35.58c-1.28-0.55-2.92-0.91-4.38-0.91c-6.02,0-10.95,4.93-10.95,10.95s4.93,10.95,10.95,10.95
	c1.09,0,4.56-0.73,4.56-0.73l56.2,0.36c-22.44,35.76-40.32,40.87-40.32,47.07s16.97,4.56,23.35,2.19
	c30.65-10.95,63.49-45.43,69.15-55.28C148,96.23,167.89,96.41,172.26,86.56z"/>
<linearGradient id="SVGID_00000091711992080350773550000016515210013279373978_" gradientUnits="userSpaceOnUse" x1="146.5362" y1="1001.0317" x2="60.2464" y2="914.5307" gradientTransform="matrix(1 0 0 1 0 -926)">
	<stop  offset="0" style="stop-color:#3B22A0"/>
	<stop  offset="1" style="stop-color:#5156D8;stop-opacity:0"/>
</linearGradient>
<path style="fill-rule:evenodd;clip-rule:evenodd;fill:url(#SVGID_00000091711992080350773550000016515210013279373978_);" d="
	M125.92,42.95L125.92,42.95c1.28-0.55,1.09-2.37,0.73-3.83c-0.73-3.28-14.41-16.79-27.19-22.81C81.95,8.1,69.18,8.47,67.35,12.3
	c3.47,7.3,20.07,14.05,37.22,21.35C111.69,36.57,119.17,39.67,125.92,42.95L125.92,42.95z"/>
<linearGradient id="SVGID_00000163062360110788080890000009889801306987599019_" gradientUnits="userSpaceOnUse" x1="106.0343" y1="1045.4392" x2="23.1435" y2="997.7828" gradientTransform="matrix(1 0 0 1 0 -926)">
	<stop  offset="0" style="stop-color:#3B1E8F"/>
	<stop  offset="1" style="stop-color:#6A6FFB;stop-opacity:0"/>
</linearGradient>
<path style="fill-rule:evenodd;clip-rule:evenodd;fill:url(#SVGID_00000163062360110788080890000009889801306987599019_);" d="
	M103.66,116.3c-3.47-1.28-7.48-2.55-12.04-3.65c4.74-8.58,5.84-21.53,1.28-29.56c-6.39-11.31-14.41-17.33-33.21-17.33
	c-10.22,0-37.95,3.47-38.5,26.64c0,2.37,0,4.56,0.18,6.75l50.72,0c-6.75,10.76-13.14,18.79-18.79,24.81
	c6.75,1.64,12.22,3.1,17.33,4.56c4.74,1.28,9.31,2.37,13.87,3.65C91.44,127.06,98.01,121.59,103.66,116.3z"/>
<linearGradient id="SVGID_00000008124270452164541410000008313895863348482464_" gradientUnits="userSpaceOnUse" x1="45.7181" y1="1008.2276" x2="101.7462" y2="1079.4172" gradientTransform="matrix(1 0 0 1 0 -926)">
	<stop  offset="0" style="stop-color:#8898FF"/>
	<stop  offset="0.9839" style="stop-color:#5F47F1"/>
</linearGradient>
<path style="fill:url(#SVGID_00000008124270452164541410000008313895863348482464_);" d="M14.99,96.41
	c2.01,17.52,12.04,24.45,32.48,26.46s32.11,0.73,47.62,2.01c12.95,1.09,24.63,7.85,28.83,5.47c3.83-2.01,1.64-9.49-3.47-14.23
	c-6.75-6.2-16.06-10.4-32.29-12.04c3.28-8.94,2.37-21.53-2.74-28.28c-7.3-9.85-20.8-14.23-37.95-12.41
	C29.59,65.57,12.44,74.51,14.99,96.41z"/>
</svg>
