<svg width="1412" height="884" viewBox="0 0 1412 884" fill="none" xmlns="http://www.w3.org/2000/svg">
<g opacity="0.15" filter="url(#filter0_f_1514_46049)">
<path fill-rule="evenodd" clip-rule="evenodd" d="M1626.93 20.3848H-214.168V19.4435H1626.93V20.3848Z" fill="#0073E6"/>
<path fill-rule="evenodd" clip-rule="evenodd" d="M1626.93 89.7902H-214.168V88.8489H1626.93V89.7902Z" fill="#0073E6"/>
<path fill-rule="evenodd" clip-rule="evenodd" d="M1626.93 159.186H-214.168V158.245H1626.93V159.186Z" fill="#0073E6"/>
<path fill-rule="evenodd" clip-rule="evenodd" d="M1626.93 263.29H-214.168V262.349H1626.93V263.29Z" fill="#0073E6"/>
<path fill-rule="evenodd" clip-rule="evenodd" d="M1626.93 367.393H-214.168V366.452H1626.93V367.393Z" fill="#0073E6"/>
<path fill-rule="evenodd" clip-rule="evenodd" d="M1626.93 506.204H-214.168V505.263H1626.93V506.204Z" fill="#0073E6"/>
<path fill-rule="evenodd" clip-rule="evenodd" d="M1626.93 679.704H-214.168V678.763H1626.93V679.704Z" fill="#0073E6"/>
<path fill-rule="evenodd" clip-rule="evenodd" d="M1626.93 853.213H-214.168V852.272H1626.93V853.213Z" fill="#0073E6"/>
<path fill-rule="evenodd" clip-rule="evenodd" d="M1626.93 766.463H-214.168V765.522H1626.93V766.463Z" fill="#0073E6"/>
<path fill-rule="evenodd" clip-rule="evenodd" d="M1626.93 592.954H-214.168V592.013H1626.93V592.954Z" fill="#0073E6"/>
<path fill-rule="evenodd" clip-rule="evenodd" d="M1626.93 436.799H-214.168V435.858H1626.93V436.799Z" fill="#0073E6"/>
<path fill-rule="evenodd" clip-rule="evenodd" d="M1626.93 315.342H-214.168V314.401H1626.93V315.342Z" fill="#0073E6"/>
<path fill-rule="evenodd" clip-rule="evenodd" d="M1626.93 211.238H-214.168V210.297H1626.93V211.238Z" fill="#0073E6"/>
<path fill-rule="evenodd" clip-rule="evenodd" d="M1626.93 124.488H-214.168V123.547H1626.93V124.488Z" fill="#0073E6"/>
<path fill-rule="evenodd" clip-rule="evenodd" d="M1626.93 55.0824H-214.168V54.1411H1626.93V55.0824Z" fill="#0073E6"/>
<path fill-rule="evenodd" clip-rule="evenodd" d="M1626.93 3.03063H-214.168V2.08936H1626.93V3.03063Z" fill="#0073E6"/>
<path fill-rule="evenodd" clip-rule="evenodd" d="M-13.705 -236.981C0.648376 -148.59 32.3919 104.618 -64.7462 383.121C-182.534 720.819 -407.181 858.792 -463.703 890.977L-464.18 890.161C-407.764 858.037 -183.333 720.215 -65.6483 382.814C31.4149 104.527 -0.303314 -148.5 -14.647 -236.831L-13.705 -236.981Z" fill="#0073E6"/>
<path fill-rule="evenodd" clip-rule="evenodd" d="M23.2448 -236.977C36.8727 -148.588 66.9742 104.616 -25.1805 383.114C-136.935 720.808 -350.061 858.783 -403.686 890.971L-404.181 890.166C-350.669 858.046 -137.746 720.226 -26.0874 382.821C65.9992 104.529 35.9208 -148.503 22.3017 -236.835L23.2448 -236.977Z" fill="#0073E6"/>
<path fill-rule="evenodd" clip-rule="evenodd" d="M60.1947 -236.973C73.0875 -148.585 101.566 104.614 14.3851 383.107C-91.317 720.797 -292.921 858.774 -343.658 890.965L-344.174 890.173C-293.555 858.056 -92.1407 720.238 13.4737 382.828C100.593 104.532 72.1354 -148.505 59.2504 -236.839L60.1947 -236.973Z" fill="#0073E6"/>
<path fill-rule="evenodd" clip-rule="evenodd" d="M97.1541 -236.969C109.302 -148.583 136.148 104.611 53.9602 383.099C-45.7085 720.784 -235.791 858.763 -283.629 890.958L-284.167 890.18C-236.45 858.066 -46.5446 720.25 53.0443 382.836C135.177 104.534 108.35 -148.507 96.2087 -236.842L97.1541 -236.969Z" fill="#0073E6"/>
<path fill-rule="evenodd" clip-rule="evenodd" d="M134.104 -236.965C145.517 -148.581 170.74 104.609 93.5354 383.092C-0.090271 720.771 -178.651 858.751 -223.6 890.95L-224.16 890.188C-179.336 858.078 -0.93866 720.264 92.6153 382.843C169.771 104.537 144.565 -148.509 133.158 -236.846L134.104 -236.965Z" fill="#0073E6"/>
<path fill-rule="evenodd" clip-rule="evenodd" d="M171.054 -236.962C181.732 -148.579 205.332 104.606 133.101 383.084C45.5179 720.757 -121.52 858.738 -163.57 890.941L-164.155 890.197C-122.232 858.091 44.6576 720.277 132.177 382.85C204.365 104.539 180.779 -148.511 170.107 -236.85L171.054 -236.962Z" fill="#0073E6"/>
<path fill-rule="evenodd" clip-rule="evenodd" d="M208.004 -236.958C217.947 -148.577 239.915 104.604 172.675 383.077C91.1355 720.743 -64.3799 858.724 -103.54 890.931L-104.15 890.207C-65.1184 858.105 90.2637 720.292 171.747 382.858C238.949 104.541 216.994 -148.513 207.055 -236.854L208.004 -236.958Z" fill="#0073E6"/>
<path fill-rule="evenodd" clip-rule="evenodd" d="M244.963 -236.954C254.162 -148.574 274.507 104.602 212.241 383.069C136.744 720.728 -7.24921 858.709 -43.5082 890.919L-44.1462 890.219C-8.01383 858.121 135.861 720.307 211.309 382.866C273.543 104.544 253.209 -148.516 244.014 -236.858L244.963 -236.954Z" fill="#0073E6"/>
<path fill-rule="evenodd" clip-rule="evenodd" d="M281.913 -236.941C290.377 -148.563 309.09 104.609 251.815 383.061C182.361 720.712 49.8905 858.692 16.5239 890.906L15.8569 890.232C49.1003 858.137 181.467 720.322 250.881 382.874C308.127 104.555 289.424 -148.509 280.963 -236.852L281.913 -236.941Z" fill="#0073E6"/>
<path fill-rule="evenodd" clip-rule="evenodd" d="M318.872 -236.937C326.601 -148.56 343.691 104.607 291.39 383.053C227.968 720.696 107.02 858.674 76.5567 890.89L75.8594 890.247C106.205 858.155 227.065 720.339 290.452 382.881C342.73 104.558 325.648 -148.511 317.921 -236.856L318.872 -236.937Z" fill="#0073E6"/>
<path fill-rule="evenodd" clip-rule="evenodd" d="M355.822 -236.933C362.816 -148.558 378.275 104.604 330.955 383.045C273.585 720.68 164.15 858.655 136.59 890.873L135.862 890.265C163.311 858.175 272.672 720.355 330.014 382.889C377.315 104.56 361.863 -148.513 354.871 -236.86L355.822 -236.933Z" fill="#0073E6"/>
<path fill-rule="evenodd" clip-rule="evenodd" d="M392.762 -236.929C399.021 -148.556 412.857 104.602 370.519 383.037C319.181 720.662 221.278 858.634 196.614 890.853L195.853 890.285C220.417 858.195 318.261 720.372 369.576 382.897C411.898 104.562 398.068 -148.516 391.81 -236.864L392.762 -236.929Z" fill="#0073E6"/>
<path fill-rule="evenodd" clip-rule="evenodd" d="M429.712 -236.925C435.236 -148.553 447.44 104.6 410.084 383.029C364.797 720.645 278.406 858.612 256.649 890.83L255.855 890.307C277.525 858.217 363.869 720.39 409.138 382.906C446.483 104.565 434.283 -148.518 428.759 -236.867L429.712 -236.925Z" fill="#0073E6"/>
<path fill-rule="evenodd" clip-rule="evenodd" d="M466.671 -236.922C471.451 -148.551 482.033 104.597 449.658 383.021C410.403 720.628 335.542 858.588 316.682 890.805L315.856 890.333C334.643 858.241 409.468 720.407 448.71 382.914C481.076 104.567 470.497 -148.52 465.718 -236.871L466.671 -236.922Z" fill="#0073E6"/>
<path fill-rule="evenodd" clip-rule="evenodd" d="M503.63 -236.918C507.675 -148.549 516.625 104.595 489.232 383.013C456.018 720.61 392.667 858.563 376.716 890.776L375.859 890.362C391.753 858.265 455.077 720.424 488.282 382.922C515.669 104.569 506.722 -148.523 502.677 -236.875L503.63 -236.918Z" fill="#0073E6"/>
<path fill-rule="evenodd" clip-rule="evenodd" d="M540.57 -236.914C543.881 -148.546 551.208 104.593 528.796 383.005C501.622 720.593 449.801 858.538 436.748 890.744L435.862 890.394C448.873 858.291 500.678 720.442 527.845 382.93C550.253 104.572 542.927 -148.525 539.617 -236.879L540.57 -236.914Z" fill="#0073E6"/>
<path fill-rule="evenodd" clip-rule="evenodd" d="M577.529 -236.91C580.105 -148.544 585.801 104.59 568.37 382.997C547.236 720.576 506.923 858.512 496.778 890.709L495.867 890.429C505.985 858.318 546.288 720.459 567.418 382.938C584.846 104.574 579.151 -148.527 576.575 -236.883L577.529 -236.91Z" fill="#0073E6"/>
<path fill-rule="evenodd" clip-rule="evenodd" d="M614.478 -236.906C616.32 -148.542 620.384 104.588 607.933 382.988C592.84 720.559 564.054 858.484 556.806 890.671L555.875 890.467C563.108 858.345 591.888 720.476 606.98 382.947C619.43 104.576 615.366 -148.53 613.525 -236.887L614.478 -236.906Z" fill="#0073E6"/>
<path fill-rule="evenodd" clip-rule="evenodd" d="M651.428 -236.902C652.534 -148.539 654.977 104.586 647.507 382.98C638.453 720.542 621.174 858.457 616.831 890.631L615.885 890.507C620.223 858.372 637.5 720.492 646.553 382.955C654.023 104.579 651.58 -148.532 650.474 -236.891L651.428 -236.902Z" fill="#0073E6"/>
<path fill-rule="evenodd" clip-rule="evenodd" d="M688.387 -236.898C688.759 -148.537 689.57 104.583 687.08 382.972C684.056 720.526 678.303 858.429 676.852 890.59L675.899 890.548C677.349 858.401 683.102 720.509 686.126 382.963C688.616 104.581 687.805 -148.534 687.433 -236.894L688.387 -236.898Z" fill="#0073E6"/>
<path fill-rule="evenodd" clip-rule="evenodd" d="M725.327 -236.894C724.954 -148.534 724.144 104.581 726.634 382.963C729.658 720.509 735.41 858.401 736.86 890.548L735.907 890.59C734.457 858.429 728.704 720.526 725.68 382.972C723.19 104.583 724 -148.537 724.373 -236.898L725.327 -236.894Z" fill="#0073E6"/>
<path fill-rule="evenodd" clip-rule="evenodd" d="M762.286 -236.891C761.179 -148.532 758.737 104.579 766.207 382.955C775.26 720.492 792.536 858.372 796.874 890.507L795.929 890.631C791.585 858.457 774.307 720.542 765.253 382.98C757.783 104.586 760.225 -148.539 761.332 -236.902L762.286 -236.891Z" fill="#0073E6"/>
<path fill-rule="evenodd" clip-rule="evenodd" d="M799.235 -236.887C797.394 -148.53 793.33 104.576 805.779 382.947C820.871 720.476 849.651 858.345 856.885 890.467L855.954 890.671C848.705 858.484 819.92 720.559 804.826 382.988C792.375 104.588 796.44 -148.542 798.281 -236.906L799.235 -236.887Z" fill="#0073E6"/>
<path fill-rule="evenodd" clip-rule="evenodd" d="M836.184 -236.883C833.608 -148.527 827.913 104.574 845.342 382.938C866.472 720.459 906.774 858.318 916.892 890.429L915.981 890.709C905.836 858.512 865.523 720.576 844.39 382.997C826.958 104.59 832.654 -148.544 835.23 -236.91L836.184 -236.883Z" fill="#0073E6"/>
<path fill-rule="evenodd" clip-rule="evenodd" d="M873.143 -236.879C869.833 -148.525 862.506 104.572 884.914 382.93C912.082 720.442 963.886 858.291 976.897 890.394L976.012 890.744C962.959 858.538 911.137 720.593 883.963 383.005C861.551 104.593 868.879 -148.546 872.189 -236.914L873.143 -236.879Z" fill="#0073E6"/>
<path fill-rule="evenodd" clip-rule="evenodd" d="M910.083 -236.875C906.038 -148.523 897.09 104.569 924.477 382.922C957.682 720.424 1021.01 858.265 1036.9 890.362L1036.04 890.776C1020.09 858.563 956.742 720.61 923.528 383.013C896.134 104.595 905.084 -148.549 909.13 -236.918L910.083 -236.875Z" fill="#0073E6"/>
<path fill-rule="evenodd" clip-rule="evenodd" d="M947.042 -236.871C942.262 -148.52 931.684 104.567 964.049 382.914C1003.29 720.407 1078.12 858.241 1096.9 890.333L1096.08 890.805C1077.22 858.588 1002.36 720.628 963.102 383.021C930.727 104.597 941.309 -148.551 946.089 -236.922L947.042 -236.871Z" fill="#0073E6"/>
<path fill-rule="evenodd" clip-rule="evenodd" d="M984 -236.867C978.477 -148.518 966.277 104.565 1003.62 382.906C1048.89 720.39 1135.23 858.217 1156.9 890.307L1156.11 890.83C1134.35 858.612 1047.96 720.645 1002.68 383.029C965.319 104.6 977.523 -148.553 983.048 -236.925L984 -236.867Z" fill="#0073E6"/>
<path fill-rule="evenodd" clip-rule="evenodd" d="M1020.95 -236.864C1014.69 -148.516 1000.86 104.562 1043.18 382.897C1094.5 720.372 1192.34 858.195 1216.91 890.285L1216.15 890.853C1191.48 858.634 1093.58 720.662 1042.24 383.037C999.902 104.602 1013.74 -148.556 1020 -236.929L1020.95 -236.864Z" fill="#0073E6"/>
<path fill-rule="evenodd" clip-rule="evenodd" d="M1057.9 -236.86C1050.91 -148.513 1035.45 104.56 1082.76 382.889C1140.1 720.355 1249.46 858.175 1276.91 890.265L1276.18 890.873C1248.62 858.655 1139.18 720.68 1081.81 383.045C1034.49 104.604 1049.95 -148.558 1056.95 -236.933L1057.9 -236.86Z" fill="#0073E6"/>
<path fill-rule="evenodd" clip-rule="evenodd" d="M1094.84 -236.856C1087.11 -148.511 1070.03 104.558 1122.31 382.881C1185.69 720.339 1306.55 858.155 1336.9 890.247L1336.2 890.89C1305.74 858.674 1184.79 720.696 1121.37 383.053C1069.07 104.607 1086.16 -148.56 1093.89 -236.937L1094.84 -236.856Z" fill="#0073E6"/>
<path fill-rule="evenodd" clip-rule="evenodd" d="M1131.8 -236.852C1123.34 -148.509 1104.63 104.555 1161.88 382.874C1231.29 720.322 1363.66 858.137 1396.9 890.232L1396.24 890.906C1362.87 858.692 1230.4 720.712 1160.94 383.061C1103.67 104.609 1122.38 -148.563 1130.85 -236.941L1131.8 -236.852Z" fill="#0073E6"/>
<path fill-rule="evenodd" clip-rule="evenodd" d="M1168.75 -236.848C1159.55 -148.506 1139.23 104.553 1201.45 382.866C1276.9 720.307 1420.77 858.121 1456.91 890.219L1456.27 890.919C1420.01 858.709 1276.02 720.728 1200.52 383.069C1138.26 104.611 1158.6 -148.565 1167.81 -236.945L1168.75 -236.848Z" fill="#0073E6"/>
<path fill-rule="evenodd" clip-rule="evenodd" d="M1205.69 -236.844C1195.77 -148.504 1173.81 104.551 1241.01 382.858C1322.5 720.292 1477.88 858.105 1516.91 890.207L1516.3 890.931C1477.14 858.724 1321.62 720.743 1240.08 383.077C1172.84 104.614 1194.81 -148.567 1204.75 -236.948L1205.69 -236.844Z" fill="#0073E6"/>
<path fill-rule="evenodd" clip-rule="evenodd" d="M1242.65 -236.841C1231.98 -148.502 1208.4 104.548 1280.58 382.85C1368.1 720.277 1534.99 858.091 1576.91 890.197L1576.33 890.941C1534.28 858.738 1367.24 720.757 1279.66 383.084C1207.44 104.616 1231.03 -148.569 1241.71 -236.952L1242.65 -236.841Z" fill="#0073E6"/>
<path fill-rule="evenodd" clip-rule="evenodd" d="M1279.6 -236.837C1268.19 -148.5 1242.99 104.546 1320.14 382.843C1413.7 720.264 1592.1 858.078 1636.92 890.188L1636.36 890.95C1591.41 858.751 1412.85 720.771 1319.22 383.092C1242.02 104.618 1267.24 -148.572 1278.66 -236.956L1279.6 -236.837Z" fill="#0073E6"/>
<path fill-rule="evenodd" clip-rule="evenodd" d="M1316.55 -236.833C1304.42 -148.497 1277.58 104.544 1359.72 382.836C1459.3 720.25 1649.21 858.066 1696.93 890.18L1696.39 890.958C1648.55 858.763 1458.47 720.784 1358.8 383.099C1276.61 104.621 1303.47 -148.574 1315.61 -236.96L1316.55 -236.833Z" fill="#0073E6"/>
<path fill-rule="evenodd" clip-rule="evenodd" d="M1353.51 -236.829C1340.63 -148.495 1312.18 104.541 1399.29 382.828C1504.9 720.238 1706.31 858.056 1756.93 890.173L1756.42 890.965C1705.68 858.773 1504.08 720.797 1398.37 383.106C1311.2 104.623 1339.68 -148.576 1352.56 -236.964L1353.51 -236.829Z" fill="#0073E6"/>
<path fill-rule="evenodd" clip-rule="evenodd" d="M1390.46 -236.826C1376.85 -148.493 1346.76 104.539 1438.85 382.821C1550.51 720.226 1763.43 858.046 1816.94 890.166L1816.45 890.971C1762.82 858.783 1549.69 720.808 1437.94 383.114C1345.79 104.626 1375.9 -148.578 1389.51 -236.967L1390.46 -236.826Z" fill="#0073E6"/>
<path fill-rule="evenodd" clip-rule="evenodd" d="M1427.41 -236.822C1413.05 -148.491 1381.34 104.536 1478.41 382.814C1596.09 720.215 1820.52 858.037 1876.94 890.161L1876.46 890.977C1819.94 858.792 1595.29 720.819 1477.51 383.121C1380.37 104.628 1412.1 -148.58 1426.46 -236.971L1427.41 -236.822Z" fill="#0073E6"/>
</g>
<defs>
<filter id="filter0_f_1514_46049" x="-830.24" y="-243.003" width="3073.24" height="1140" filterUnits="userSpaceOnUse" color-interpolation-filters="sRGB">
<feFlood flood-opacity="0" result="BackgroundImageFix"/>
<feBlend mode="normal" in="SourceGraphic" in2="BackgroundImageFix" result="shape"/>
</filter>
</defs>
</svg>
