<svg width="36" height="42" viewBox="0 0 36 42" fill="none" xmlns="http://www.w3.org/2000/svg">
<path fill-rule="evenodd" clip-rule="evenodd" d="M1.35503 9.97621C1.15074 10.0297 1 10.2155 1 10.4366V20.8332V30.7854C1 31.0482 1.21303 31.2612 1.47581 31.2612C1.7386 31.2612 1.95163 31.0482 1.95163 30.7854V22.6921L16.9367 32.0414L16.9719 40.4948C16.9728 40.7149 17.1231 40.8994 17.3262 40.9529C17.4647 41.0194 17.6327 41.0177 17.7748 40.9336L34.2816 31.1672C34.5078 31.0334 34.5827 30.7416 34.4489 30.5155C34.315 30.2893 34.0232 30.2144 33.7971 30.3482L17.9204 39.7417L17.8889 32.1863L34.1886 22.3436C34.4136 22.2077 34.4858 21.9152 34.35 21.6903C34.2142 21.4653 33.9217 21.3931 33.6967 21.5289L17.8843 31.0774L17.845 21.6481L33.8713 11.9542C34.0311 11.8575 34.1137 11.6818 34.0993 11.5075C34.1136 11.3334 34.0311 11.1578 33.8715 11.0611L17.3928 1.07882C17.2597 0.99103 17.0868 0.973329 16.9347 1.04216C16.9175 1.04992 16.9006 1.05872 16.8843 1.06853L1.35503 9.97621ZM17.1236 2.02836L32.7714 11.5073L17.1218 20.9734C16.9611 21.0707 16.8784 21.2479 16.894 21.4232C16.8931 21.4361 16.8926 21.4491 16.8926 21.4622L16.932 30.9168L2.02028 21.6133C1.99802 21.5994 1.97506 21.5876 1.95163 21.5778V20.8332V10.7311L9.78479 6.23793L18.5023 11.6417C18.7257 11.7802 19.019 11.7113 19.1574 11.488C19.2959 11.2646 19.227 10.9713 19.0037 10.8329L10.7229 5.69982L17.1236 2.02836Z" fill="#0073E6"/>
<path d="M1.35503 9.97621L1.60816 10.9436L1.73704 10.9099L1.85259 10.8436L1.35503 9.97621ZM1.95163 22.6921L2.48096 21.8437L0.951627 20.8895V22.6921H1.95163ZM16.9367 32.0414L17.9367 32.0372L17.9344 31.4852L17.466 31.193L16.9367 32.0414ZM16.9719 40.4948L15.9719 40.4989V40.4989L16.9719 40.4948ZM17.3262 40.9529L17.7588 40.0513L17.673 40.0102L17.5809 39.9859L17.3262 40.9529ZM17.7748 40.9336L18.284 41.7942L18.284 41.7942L17.7748 40.9336ZM34.2816 31.1672L34.7908 32.0279L34.2816 31.1672ZM34.4489 30.5155L33.5882 31.0246L33.5882 31.0247L34.4489 30.5155ZM33.7971 30.3482L34.3063 31.2089L33.7971 30.3482ZM17.9204 39.7417L16.9204 39.7459L16.9277 41.491L18.4296 40.6023L17.9204 39.7417ZM17.8889 32.1863L17.372 31.3303L16.8866 31.6234L16.889 32.1905L17.8889 32.1863ZM34.1886 22.3436L34.7056 23.1996L34.7056 23.1996L34.1886 22.3436ZM34.35 21.6903L33.494 22.2072L33.494 22.2072L34.35 21.6903ZM33.6967 21.5289L33.1798 20.6729V20.6729L33.6967 21.5289ZM17.8843 31.0774L16.8843 31.0816L16.8917 32.845L18.4012 31.9334L17.8843 31.0774ZM17.845 21.6481L17.3275 20.7925L16.8427 21.0857L16.845 21.6523L17.845 21.6481ZM33.8713 11.9542L34.3888 12.8098L33.8713 11.9542ZM34.0993 11.5075L33.1026 11.4254L33.0959 11.5076L33.1027 11.5899L34.0993 11.5075ZM33.8715 11.0611L33.3534 11.9165L33.3534 11.9165L33.8715 11.0611ZM17.3928 1.07882L16.8422 1.91359L16.8583 1.92417L16.8747 1.93413L17.3928 1.07882ZM16.9347 1.04216L17.3447 1.95429L17.3471 1.95317L16.9347 1.04216ZM16.8843 1.06853L17.3819 1.93596L17.3911 1.93069L17.4002 1.92522L16.8843 1.06853ZM32.7714 11.5073L33.2889 12.363L34.7025 11.508L33.2895 10.652L32.7714 11.5073ZM17.1236 2.02836L17.6417 1.17305L17.1375 0.867579L16.626 1.16093L17.1236 2.02836ZM17.1218 20.9734L17.6393 21.8291L17.6394 21.8291L17.1218 20.9734ZM16.894 21.4232L17.8911 21.4999L17.8975 21.4171L17.8901 21.3344L16.894 21.4232ZM16.8926 21.4622L15.8926 21.4664V21.4664L16.8926 21.4622ZM16.932 30.9168L16.4027 31.7652L17.9396 32.7241L17.932 30.9126L16.932 30.9168ZM2.02028 21.6133L1.49094 22.4617L1.49095 22.4617L2.02028 21.6133ZM1.95163 21.5778H0.951627V22.2433L1.56554 22.5002L1.95163 21.5778ZM1.95163 10.7311L1.45407 9.86364L0.951627 10.1518V10.7311H1.95163ZM9.78479 6.23793L10.3117 5.38798L9.80466 5.0737L9.28723 5.3705L9.78479 6.23793ZM18.5023 11.6417L19.0292 10.7918L19.0292 10.7918L18.5023 11.6417ZM19.1574 11.488L20.0074 12.0148L20.0074 12.0148L19.1574 11.488ZM19.0037 10.8329L19.5305 9.98293L19.5305 9.98293L19.0037 10.8329ZM10.7229 5.69982L10.2253 4.83239L8.77116 5.66652L10.196 6.54977L10.7229 5.69982ZM2 10.4366C2 10.6815 1.83296 10.8848 1.60816 10.9436L1.1019 9.00878C0.468521 9.1745 0 9.74955 0 10.4366H2ZM2 20.8332V10.4366H0V20.8332H2ZM2 30.7854V20.8332H0V30.7854H2ZM1.47581 30.2612C1.76531 30.2612 2 30.4959 2 30.7854H0C0 31.6005 0.660746 32.2612 1.47581 32.2612V30.2612ZM0.951627 30.7854C0.951627 30.4959 1.18631 30.2612 1.47581 30.2612V32.2612C2.29088 32.2612 2.95163 31.6005 2.95163 30.7854H0.951627ZM0.951627 22.6921V30.7854H2.95163V22.6921H0.951627ZM17.466 31.193L2.48096 21.8437L1.4223 23.5405L16.4074 32.8898L17.466 31.193ZM17.9719 40.4906L17.9367 32.0372L15.9367 32.0455L15.9719 40.4989L17.9719 40.4906ZM17.5809 39.9859C17.8044 40.0448 17.9709 40.2467 17.9719 40.4906L15.9719 40.4989C15.9748 41.183 16.4417 41.7541 17.0716 41.92L17.5809 39.9859ZM17.2656 40.0729C17.4229 39.9799 17.609 39.9795 17.7588 40.0513L16.8937 41.8545C17.3204 42.0593 17.8425 42.0554 18.284 41.7942L17.2656 40.0729ZM33.7724 30.3066L17.2656 40.0729L18.284 41.7942L34.7908 32.0279L33.7724 30.3066ZM33.5882 31.0247C33.4408 30.7755 33.5233 30.454 33.7724 30.3066L34.7908 32.0279C35.4923 31.6129 35.7245 30.7077 35.3095 30.0062L33.5882 31.0247ZM34.3063 31.2089C34.0571 31.3563 33.7356 31.2738 33.5882 31.0246L35.3095 30.0063C34.8945 29.3048 33.9893 29.0726 33.2879 29.4876L34.3063 31.2089ZM18.4296 40.6023L34.3063 31.2089L33.2879 29.4876L17.4112 38.881L18.4296 40.6023ZM16.889 32.1905L16.9204 39.7459L18.9204 39.7375L18.8889 32.1821L16.889 32.1905ZM33.6717 21.4875L17.372 31.3303L18.4059 33.0423L34.7056 23.1996L33.6717 21.4875ZM33.494 22.2072C33.3443 21.9594 33.4239 21.6372 33.6717 21.4875L34.7056 23.1996C35.4033 22.7783 35.6274 21.8711 35.206 21.1734L33.494 22.2072ZM34.2136 22.385C33.9658 22.5346 33.6436 22.455 33.494 22.2072L35.206 21.1734C34.7847 20.4756 33.8775 20.2516 33.1798 20.6729L34.2136 22.385ZM18.4012 31.9334L34.2136 22.385L33.1798 20.6729L17.3674 30.2214L18.4012 31.9334ZM16.845 21.6523L16.8843 31.0816L18.8843 31.0732L18.845 21.644L16.845 21.6523ZM33.3537 11.0986L17.3275 20.7925L18.3626 22.5038L34.3888 12.8098L33.3537 11.0986ZM33.1027 11.5899C33.087 11.4006 33.1764 11.2058 33.3537 11.0986L34.3888 12.8098C34.8857 12.5093 35.1403 11.9631 35.0959 11.4252L33.1027 11.5899ZM33.3534 11.9165C33.1764 11.8092 33.0871 11.6146 33.1026 11.4254L35.0959 11.5896C35.1402 11.0521 34.8859 10.5065 34.3896 10.2058L33.3534 11.9165ZM16.8747 1.93413L33.3534 11.9165L34.3896 10.2058L17.9109 0.223514L16.8747 1.93413ZM17.3471 1.95317C17.1768 2.03026 16.9869 2.009 16.8422 1.91359L17.9434 0.244055C17.5326 -0.0269419 16.9967 -0.0836015 16.5223 0.13116L17.3471 1.95317ZM17.4002 1.92522C17.3821 1.93609 17.3636 1.94578 17.3447 1.95428L16.5248 0.130043C16.4714 0.15406 16.4192 0.181345 16.3685 0.211838L17.4002 1.92522ZM1.85259 10.8436L17.3819 1.93596L16.3868 0.201101L0.857471 9.10878L1.85259 10.8436ZM33.2895 10.652L17.6417 1.17305L16.6055 2.88366L32.2533 12.3626L33.2895 10.652ZM17.6394 21.8291L33.2889 12.363L32.2538 10.6517L16.6042 20.1178L17.6394 21.8291ZM17.8901 21.3344C17.9071 21.5248 17.8177 21.7212 17.6393 21.8291L16.6042 20.1178C16.1044 20.4201 15.8498 20.9709 15.898 21.512L17.8901 21.3344ZM17.8926 21.4581C17.8927 21.472 17.8922 21.4859 17.8911 21.4999L15.897 21.3464C15.8939 21.3862 15.8925 21.4262 15.8926 21.4664L17.8926 21.4581ZM17.932 30.9126L17.8926 21.4581L15.8926 21.4664L15.932 30.921L17.932 30.9126ZM1.49095 22.4617L16.4027 31.7652L17.4614 30.0684L2.54961 20.7649L1.49095 22.4617ZM1.56554 22.5002C1.53946 22.4893 1.5145 22.4764 1.49094 22.4617L2.54961 20.7649C2.48154 20.7224 2.41067 20.6858 2.33771 20.6553L1.56554 22.5002ZM0.951627 20.8332V21.5778H2.95163V20.8332H0.951627ZM0.951627 10.7311V20.8332H2.95163V10.7311H0.951627ZM9.28723 5.3705L1.45407 9.86364L2.44919 11.5985L10.2824 7.10536L9.28723 5.3705ZM19.0292 10.7918L10.3117 5.38798L9.25793 7.08788L17.9754 12.4917L19.0292 10.7918ZM18.3075 10.9611C18.46 10.7151 18.7831 10.6392 19.0292 10.7918L17.9754 12.4917C18.6682 12.9211 19.5779 12.7076 20.0074 12.0148L18.3075 10.9611ZM18.4768 11.6828C18.2307 11.5303 18.1549 11.2072 18.3075 10.9611L20.0074 12.0148C20.4368 11.3221 20.2233 10.4124 19.5305 9.98293L18.4768 11.6828ZM10.196 6.54977L18.4768 11.6828L19.5305 9.98293L11.2498 4.84987L10.196 6.54977ZM16.626 1.16093L10.2253 4.83239L11.2205 6.56725L17.6212 2.89579L16.626 1.16093Z" fill="#0073E6"/>
</svg>
