<svg width="192" height="50" viewBox="0 0 192 50" fill="none" xmlns="http://www.w3.org/2000/svg">
<g clip-path="url(#clip0_1270_36101)">
<path d="M25.2793 0H186.1C189.191 0 191.697 2.50587 191.697 5.59701V44.403C191.697 47.4941 189.191 50 186.1 50H56.0807L45.1021 37.4534V17.3507L25.2793 0Z" fill="#2B2B2B"/>
<circle cx="25.2713" cy="25.2716" r="8.42366" fill="white"/>
<path d="M0 0H25.271V8.42366H8.42366L0 0Z" fill="#3399FF"/>
<path d="M54.9339 54.9425L37.0647 37.0732L43.0211 31.1168L66.8471 54.9427L54.9339 54.9425Z" fill="#3399FF"/>
<path fill-rule="evenodd" clip-rule="evenodd" d="M50.5424 25.2719C50.5424 32.2503 47.7139 38.5679 43.1409 43.1411L37.184 37.1842C40.2327 34.1354 42.1183 29.9237 42.1183 25.2715C42.1183 15.9671 34.5758 8.42443 25.2714 8.42419V8.42354H8.42338L7.40234 7.40251C11.9755 2.82946 18.2932 0.000976562 25.2715 0.000976562C39.2282 0.000976562 50.5424 11.3152 50.5424 25.2719Z" fill="#3399FF"/>
</g>
<path d="M61.5664 33.2447V16.7556H71.3547V20.0221H65.2244V23.3221H70.3255V26.488H65.2244V29.9782H71.3547V33.2447H61.5664Z" fill="white"/>
<path d="M85.8145 33.2447V16.7556H90.3115C91.721 16.7556 92.9366 17.0987 93.9583 17.7848C94.98 18.4709 95.7668 19.4255 96.3187 20.6486C96.8705 21.8642 97.1465 23.2774 97.1465 24.8883C97.1465 26.5364 96.8817 27.9907 96.3522 29.251C95.8227 30.5039 95.0658 31.4846 94.0814 32.1931C93.1044 32.8941 91.9373 33.2447 90.5799 33.2447H85.8145ZM89.3047 29.9782H90.7142C91.363 29.9782 91.9037 29.7656 92.3362 29.3405C92.7688 28.908 93.0969 28.3114 93.3207 27.5507C93.5519 26.7825 93.6674 25.8951 93.6674 24.8883C93.6674 23.9262 93.5556 23.0798 93.3318 22.3489C93.1081 21.6181 92.7762 21.0475 92.3362 20.6374C91.9037 20.2272 91.363 20.0221 90.7142 20.0221H89.3047V29.9782Z" fill="white"/>
<path d="M111.605 33.2447L116.304 16.7556H119.884L124.582 33.2447H120.879L119.872 29.0273L119.593 27.6066L118.138 21.0513H118.049L116.595 27.6066L116.315 29.0273L115.308 33.2447H111.605ZM114.749 29.9446V26.913H121.438V29.9446H114.749Z" fill="white"/>
<path d="M146.579 33.4237C145.08 33.4237 143.764 33.0694 142.63 32.361C141.496 31.645 140.613 30.6531 139.979 29.3853C139.352 28.11 139.039 26.6371 139.039 24.9666C139.039 23.3035 139.349 21.8455 139.968 20.5926C140.587 19.3323 141.448 18.3479 142.552 17.6394C143.655 16.9309 144.946 16.5767 146.422 16.5767C147.078 16.5767 147.791 16.7034 148.559 16.957C149.327 17.2031 149.987 17.5312 150.539 17.9414L149.196 21.2079C148.913 20.8276 148.518 20.5181 148.011 20.2794C147.504 20.0408 146.982 19.9215 146.445 19.9215C145.676 19.9215 145.005 20.134 144.431 20.5591C143.857 20.9842 143.413 21.5771 143.1 22.3378C142.787 23.091 142.63 23.9673 142.63 24.9666C142.63 25.9734 142.79 26.8646 143.111 27.6402C143.439 28.4084 143.898 29.0087 144.487 29.4412C145.084 29.8663 145.777 30.0789 146.568 30.0789C147.09 30.0789 147.597 29.9633 148.089 29.7321C148.581 29.5009 148.965 29.2026 149.241 28.8372L150.584 32.0925C150.054 32.4877 149.417 32.8084 148.671 33.0545C147.932 33.3006 147.235 33.4237 146.579 33.4237Z" fill="white"/>
<path d="M169.003 33.2447V19.5075H172.672V33.2447H169.003ZM165.043 20.0221V16.7556H176.632V20.0221H165.043Z" fill="white"/>
<defs>
<clipPath id="clip0_1270_36101">
<rect width="191.698" height="50" fill="white"/>
</clipPath>
</defs>
</svg>
