<svg width="62" height="50" viewBox="0 0 62 50" fill="none" xmlns="http://www.w3.org/2000/svg">
<g clip-path="url(#clip0_2653_34492)">
<g clip-path="url(#clip1_2653_34492)">
<circle cx="25.2716" cy="25.2713" r="8.42366" fill="black"/>
<path d="M0 0H25.271V8.42366H8.42366L0 0Z" fill="#0073E6"/>
<path d="M54.9338 54.9427L37.0645 37.0735L43.021 31.117L66.8469 54.943L54.9338 54.9427Z" fill="#0073E6"/>
<path d="M25.2715 0.000976562C39.2281 0.000976562 50.5427 11.3149 50.543 25.2715C50.543 32.25 47.714 38.5673 43.1406 43.1406L37.1846 37.1836C40.2333 34.1348 42.1191 29.9236 42.1191 25.2715C42.1191 16.1123 34.8097 8.66021 25.7061 8.42969L25.2725 8.42383H8.4248L7.40332 7.40234C11.9762 2.82955 18.2936 0.00122821 25.2715 0.000976562Z" fill="#0073E6"/>
</g>
</g>
<defs>
<clipPath id="clip0_2653_34492">
<rect width="62" height="50" fill="white"/>
</clipPath>
<clipPath id="clip1_2653_34492">
<rect width="191.698" height="50" fill="white"/>
</clipPath>
</defs>
</svg>
