<svg width="192" height="50" viewBox="0 0 192 50" fill="none" xmlns="http://www.w3.org/2000/svg">
<g clip-path="url(#clip0_1270_38321)">
<path d="M25.2803 0H186.101C189.192 0 191.698 2.50587 191.698 5.59701V44.403C191.698 47.4941 189.192 50 186.101 50H56.0817L45.103 37.4534V17.3507L25.2803 0Z" fill="#E3E3E3"/>
<circle cx="25.2713" cy="25.2716" r="8.42366" fill="black"/>
<path d="M0 0H25.271V8.42366H8.42366L0 0Z" fill="#0073E6"/>
<path d="M54.9339 54.9426L37.0647 37.0733L43.0211 31.1169L66.8471 54.9429L54.9339 54.9426Z" fill="#0073E6"/>
<path fill-rule="evenodd" clip-rule="evenodd" d="M50.5434 25.2719C50.5434 32.2503 47.7149 38.5679 43.1419 43.1411L37.185 37.1842C40.2337 34.1354 42.1193 29.9237 42.1193 25.2715C42.1193 15.9671 34.5767 8.42443 25.2724 8.42419V8.42354H8.42435L7.40332 7.40251C11.9765 2.82946 18.2941 0.000976562 25.2724 0.000976562C39.2292 0.000976562 50.5434 11.3152 50.5434 25.2719Z" fill="#0073E6"/>
</g>
<path d="M61.5674 33.2445V16.7555H71.3557V20.022H65.2254V23.322H70.3265V26.4878H65.2254V29.9781H71.3557V33.2445H61.5674Z" fill="black"/>
<path d="M85.8145 33.2445V16.7555H90.3115C91.721 16.7555 92.9366 17.0985 93.9583 17.7847C94.98 18.4708 95.7668 19.4254 96.3187 20.6484C96.8705 21.864 97.1465 23.2773 97.1465 24.8882C97.1465 26.5363 96.8817 27.9906 96.3522 29.2509C95.8227 30.5038 95.0658 31.4845 94.0814 32.193C93.1044 32.894 91.9373 33.2445 90.5799 33.2445H85.8145ZM89.3047 29.9781H90.7142C91.363 29.9781 91.9037 29.7655 92.3362 29.3404C92.7688 28.9079 93.0969 28.3112 93.3207 27.5506C93.5519 26.7824 93.6674 25.8949 93.6674 24.8882C93.6674 23.9261 93.5556 23.0796 93.3318 22.3488C93.1081 21.6179 92.7762 21.0474 92.3362 20.6372C91.9037 20.2271 91.363 20.022 90.7142 20.022H89.3047V29.9781Z" fill="black"/>
<path d="M111.605 33.2445L116.304 16.7555H119.884L124.582 33.2445H120.879L119.872 29.0272L119.593 27.6065L118.138 21.0511H118.049L116.595 27.6065L116.315 29.0272L115.308 33.2445H111.605ZM114.749 29.9445V26.9129H121.438V29.9445H114.749Z" fill="black"/>
<path d="M146.581 33.4234C145.082 33.4234 143.765 33.0692 142.632 32.3607C141.498 31.6448 140.615 30.6529 139.981 29.3851C139.354 28.1098 139.041 26.6369 139.041 24.9664C139.041 23.3033 139.351 21.8453 139.97 20.5924C140.588 19.332 141.45 18.3476 142.554 17.6391C143.657 16.9307 144.948 16.5764 146.424 16.5764C147.08 16.5764 147.793 16.7032 148.561 16.9568C149.329 17.2029 149.989 17.531 150.541 17.9412L149.198 21.2077C148.915 20.8273 148.52 20.5178 148.013 20.2792C147.506 20.0405 146.983 19.9212 146.447 19.9212C145.678 19.9212 145.007 20.1338 144.433 20.5588C143.859 20.9839 143.415 21.5768 143.102 22.3375C142.789 23.0907 142.632 23.967 142.632 24.9664C142.632 25.9732 142.792 26.8644 143.113 27.64C143.441 28.4081 143.9 29.0085 144.489 29.441C145.086 29.8661 145.779 30.0786 146.57 30.0786C147.092 30.0786 147.599 29.963 148.091 29.7319C148.583 29.5007 148.967 29.2024 149.243 28.8369L150.586 32.0922C150.056 32.4875 149.418 32.8082 148.673 33.0543C147.934 33.3004 147.237 33.4234 146.581 33.4234Z" fill="black"/>
<path d="M169.005 33.2445V19.5074H172.674V33.2445H169.005ZM165.045 20.022V16.7555H176.634V20.022H165.045Z" fill="black"/>
<defs>
<clipPath id="clip0_1270_38321">
<rect width="191.698" height="50" fill="white"/>
</clipPath>
</defs>
</svg>
