<svg width="500" height="516" viewBox="0 0 500 516" fill="none" xmlns="http://www.w3.org/2000/svg">
<path d="M134.427 387.89L135.793 388.988L136.067 387.895L155.378 399.256L189.067 379.688L143.794 351.354L143.996 350.19L144.81 351.819L145.619 350.731L165.291 361.972C170.903 359.638 176.155 356.524 181.603 353.851C182.428 353.447 183.22 353.982 183.499 353.851C183.657 353.78 185.772 351.808 185.799 351.278L186.876 352.36L187.974 350.726L187.029 352.78L167.761 363.562L193.439 379.95L158.471 401.262L221.461 439.71L254.926 419.53C257.937 418.344 261.298 424 263.899 423.142L272.981 416.841L272.112 412.775L272.91 411.344L288.806 405.923L284.243 400.262L305.992 385.945C310.457 384.622 308.287 389.693 314.571 386.338C336.752 374.502 358.167 358.687 380.501 346.802C386.392 342.288 385.649 338.19 380.588 333.25L323.205 298.282L323.768 296.643L379.949 329.523C387.168 334.305 391.048 341.327 383.348 348.01L312.413 390.748C309.981 392.333 308.604 389.087 306.435 389.622L288.527 399.917C289.577 404.218 293.631 403.502 296.56 404.715C298.473 405.508 304.517 409.48 305.314 409.633C308.478 410.24 316.446 406.213 319.309 408.065C321.511 412.267 319.369 415.393 323.768 418.486C326.949 420.721 328.134 418.049 331.276 418.59C335.009 419.235 336.222 422.956 335.397 426.295C333.282 429.945 329.156 430.481 325.987 427.743C324.659 426.196 324.812 423.94 323.752 422.327C322.593 420.557 318.817 419 317.894 416.71C317.091 414.71 318.014 412.846 316.97 411.065C312.845 410.726 308.85 413.153 304.67 412.442C301.784 411.956 296.637 406.639 293.178 407.005C288.292 411.021 281.757 411.491 275.97 413.601C276.025 415.431 277.09 416.464 275.992 418.256C275.609 418.879 264.8 426.202 263.942 426.459C261.642 427.787 257.03 422.18 255.56 422.409L223.494 441.453L257.642 463.126L293.708 441.656L324.582 459.475L293.795 443.18L259.008 463.863L293.435 486.257L257.511 465.59L244.8 472.049L255.724 464.683L221.024 443.683L180.876 467.18C186.193 479.896 165.81 481.312 169.1 468.765C170.362 463.962 175.876 463.781 179.778 465.284L217.45 442.257L218.018 440.923L155.908 402.792L119.662 422.89L135.952 433.645C135.318 443.246 137.16 454.787 136.067 464.148C135.946 465.18 135.804 466.137 134.936 466.842L107.378 482.487L80.0989 467.088C79.2355 466.694 79.3065 466.038 79.1918 465.262C78.4431 460.262 78.5032 439.169 79.1918 434.054C79.2737 433.453 79.2573 432.869 79.7218 432.399L106.946 416.415L118.7 422.235L152.433 400.748L134.52 389.425C134.22 388.961 134.444 388.398 134.411 387.906L132.777 388.453L133.05 385.721L133.591 387.365L134.695 386.813C135.116 387.24 134.395 387.726 134.411 387.906L134.427 387.89ZM132.236 433.257L107.372 418.688L81.9623 433.519L107.28 448.443L132.236 433.257ZM329.32 423.486C327.67 424.016 328.484 426.191 329.894 426.601C333.266 427.584 333.184 422.246 329.32 423.486ZM106.012 450.186L81.4213 435.978V464.667L106.012 479.694V450.186ZM108.198 451.005V479.694L133.575 464.962C133.81 456.738 134.258 448.3 133.908 440.054C133.864 438.972 133.788 437.595 133.651 436.552C133.613 436.273 134.444 435.825 133.072 435.989L108.198 451.011V451.005ZM179.297 471.033C179.297 468.732 177.433 466.869 175.133 466.869C172.832 466.869 170.969 468.732 170.969 471.033C170.969 473.334 172.832 475.197 175.133 475.197C177.433 475.197 179.297 473.334 179.297 471.033Z" fill="#003366"/>
<path d="M384.709 262.763L385.277 264.096L410.114 278.408L428.966 267.676C429.185 268.84 428.223 269.178 427.513 269.769C423.169 273.381 415.775 275.616 411.485 279.692L439.087 294.971L483.065 269.321L441.551 296.365L468.136 312.365L486.065 302.102L486.492 303.583L469.956 313.305L488.721 325.141L489.617 327.239L467.459 315.217L451.371 323.414L465.568 313.857L438.978 297.829L395.376 322.878C394.201 321.878 394.523 322.13 395.447 321.321C401.851 315.693 417.092 308.387 425.098 303.43C428.803 301.135 432.704 298.884 436.07 296.108L409.108 280.894L367.594 304.982L365.578 304.835L407.649 279.976L381.605 265.08L330.605 293.911L378.687 263.036C371.687 258.725 363.736 254.894 356.911 250.391C355.824 249.675 354.069 248.462 353.157 247.626C352.796 247.298 352.108 247.637 352.468 246.369H354.638L354.654 248.003L355.468 246.916C356.162 248.894 357.228 248.26 358.403 248.878C366.031 252.889 373.294 257.561 381.141 261.167L414.742 242.255L415.879 240.113L416.13 207.577L447.77 187.932L448.633 189.254L418.322 208.631L418.305 242.544L384.709 262.779V262.763Z" fill="#003366"/>
<path d="M390.168 143.625V110.018L391.545 109.734L391.829 144.346L375.414 154.543L419.676 180.013L445.901 166.013C445.136 164.844 443.999 163.947 445.638 162.751L446.71 165.472C455.721 161.024 465.01 153.051 473.928 148.969C474.453 148.729 475.611 148.089 475.961 148.816L474.497 150.63L391.802 199.358V242.254L390.709 243.074V197.718L417.157 182.439L417.228 181.308L286.336 104.537L287.664 103.182L373.048 152.789L390.162 143.614L390.168 143.625Z" fill="#003366"/>
<path d="M128.417 260.555L83.6075 287.064L113.471 305.255L127.051 298.277L127.34 300.201L116.952 306.206L116.925 307.299L173.767 343.075L171.554 343.403L171.029 341.447L170.22 342.534L113.93 308.277L34.4211 354.294L79.2249 383.518L33.3228 355.338L17.4756 363.3L31.1315 354.551L30.7927 353.431L20.7488 346.37L33.3228 352.704L111.455 307.015L73.7604 283.807C74.6347 281.812 79.0828 284.151 78.7222 286.206L80.8752 286.004C95.318 278.271 110.023 267.266 124.755 260.419C125.963 259.856 126.586 261.178 127.034 259.462L128.4 260.561L128.417 260.555Z" fill="#003366"/>
<path d="M173.652 70.8316L149.013 85.0667L124.373 70.8917L123.466 69.0666L123.767 40.8914L147.854 26.6945C149.253 26.618 152.466 28.6071 153.914 29.323C157.723 31.2137 170.024 37.6728 172.652 40.0881C173.554 40.9187 173.625 40.957 173.789 42.2302C174.92 50.7877 172.991 61.9955 173.641 70.8316H173.652ZM170.494 41.4433L147.854 29.4159L126.772 41.7056L148.871 54.0172C150.319 52.8533 171.204 42.4707 170.494 41.4379V41.4433ZM147.543 81.8755V56.4653L125.685 43.6237V68.4873C132.625 73.4819 140.729 76.9902 147.543 81.8755ZM149.729 81.8755L171.587 69.0338V44.1701L149.729 57.0118V81.8755Z" fill="#003366"/>
<path d="M65.4541 124.384L56.5469 129.969L96.6403 153.822L95.8862 155.652L53.5524 131.275L46.2244 134.893L27.9619 124.412L28.1422 101.548L46.1698 91.209L64.465 101.297C65.4049 101.816 65.476 102.482 65.6017 103.439C65.8694 105.482 65.9459 123.461 65.4541 124.39V124.384ZM61.1973 102.105L46.1698 93.9358L31.1477 102.635L46.7271 111.187L60.8639 103.226L61.2027 102.105H61.1973ZM45.3555 113.023L30.0548 104.827V123.406L45.3555 132.149V113.023ZM62.8421 123.406V104.827L48.0878 113.297V132.149C52.913 129.171 57.4595 125.346 62.8421 123.406Z" fill="#003366"/>
<path d="M356.949 461L357.102 432.147L380.376 417.666C382.086 417.114 387.507 420.606 389.441 421.672C391.54 422.825 405.895 431.196 406.278 432.109L405.748 460.568L380.365 475.071L356.949 461ZM402.737 433.24L402.168 431.907L381.152 419.781L360.119 432.164L360.457 433.284L380.611 445.104L402.742 433.24H402.737ZM404.376 434.885L382.212 447.464C383.081 455.65 382.081 463.934 382.239 472.038L404.376 458.656V434.885ZM379.786 446.907C372.529 443.705 366.392 438.339 359.02 435.431V460.022L379.786 472.044V446.907Z" fill="#003366"/>
<path d="M128.843 375.753L105.187 388.961L81.7006 374.764L81.6897 347.447L104.641 333.993L128.078 347.512C128.936 347.895 128.898 348.545 128.991 349.332C129.936 357.398 128.319 367.474 128.838 375.753H128.843ZM125.133 348.004L104.657 336.48L84.1487 348.272L104.641 359.993L125.138 348.01L125.133 348.004ZM103.827 385.704V362.48L83.87 350.19C82.2034 350.043 83.6077 350.78 83.6077 351.004V373.409L103.827 385.704ZM126.778 350.737L106.291 362.212L106.018 385.704L125.963 374.234C126.696 366.442 125.717 358.294 126.778 350.737Z" fill="#003366"/>
<path d="M433.152 326.266L457.273 340.725L457.109 368.769L433.562 382.983L409.021 368.206V340.354L433.147 326.266H433.152ZM454.103 340.354L433.065 328.348L412.032 341.43L433.535 352.802L454.109 340.354H454.103ZM455.196 367.671V342.534L434.398 354.857C433.671 355.305 434.431 355.758 434.431 355.922V378.873C434.431 379.119 432.966 380.453 434.693 380.234L455.196 367.671ZM431.699 354.556L410.933 343.081V366.851L431.699 379.146V354.556Z" fill="#003366"/>
<path d="M241.937 503.055L224.866 512.459L207.642 502.924L207.374 481.88L224.407 471.628L242.341 481.896L241.937 503.06V503.055ZM238.8 482.967L224.871 474.251L210.937 481.891C210.658 483.164 211.106 482.765 211.636 483.109C213.024 484.011 224.123 490.038 224.866 490.038L238.8 482.973V482.967ZM239.893 501.552V484.612L225.696 492.295C227.456 497.514 225.008 503.285 225.685 508.394C225.784 509.153 225.385 509.339 226.494 509.197L239.893 501.552ZM223.5 492.263C219.396 491.191 214.276 486.273 210.647 485.17C209.068 484.689 210.385 485.94 210.385 485.978V500.186C210.385 500.35 209.614 500.809 210.341 501.263L223.5 508.656V492.263Z" fill="#003366"/>
<path d="M33.1972 278.129L52.7384 289.523L52.4706 312.752L33.0715 323.927L13.4046 311.916L13.2297 289.353L33.2026 278.124L33.1972 278.129ZM49.181 290.069L33.5633 280.796L16.3937 288.993L33.0606 299.162L49.181 290.074V290.069ZM32.2409 301.004L15.3008 291.714V311.386L32.2409 321.222V301.004ZM50.8203 291.714L34.4267 301.004V319.856C34.4267 320.075 33.0223 320.813 34.689 320.67L50.8203 311.113V291.714Z" fill="#003366"/>
<path d="M428.005 253.877L427.327 232.435L428.442 230.806L446.18 221.271L464.765 231.609C465.224 232.555 465.333 250.621 465.06 252.675C464.934 253.632 464.863 254.298 463.923 254.817L446.224 264.386L428.005 253.877ZM461.748 231.609L446.087 223.544C444.152 224.434 431.147 231.019 431.163 231.872L446.732 240.697L461.748 231.609ZM445.36 261.659V242.806L429.513 233.795C430.682 239.691 429.661 245.877 429.797 251.856L445.36 261.653V261.659ZM447.546 261.659L462.847 252.642V233.79L447.546 242.533V261.659Z" fill="#003366"/>
<path d="M331.151 99.0889L382.278 68.7934L383.054 67.3836C381.671 59.3999 390.846 54.7004 396.529 60.471L438.076 36.5854L439.349 37.8805L397.267 62.2141C399.709 65.7333 397.906 70.7224 394.179 72.4984C388.043 75.4219 384.693 69.9082 383.584 70.0776L333.326 99.6298L332.386 116.717L331.151 117.395V99.0889ZM396.108 65.6295C396.108 62.6021 393.655 60.1485 390.627 60.1485C387.6 60.1485 385.146 62.6021 385.146 65.6295C385.146 68.6568 387.6 71.1104 390.627 71.1104C393.655 71.1104 396.108 68.6568 396.108 65.6295Z" fill="#003366"/>
<path d="M102.101 96.433L100.667 98.8794L209.804 162.884L211.238 160.438L102.101 96.433Z" fill="#003366"/>
<path d="M384.704 361.113L386.343 361.108L386.884 389.808L419.95 409.742L445.354 394.453L444.562 396.655L421.862 411.376L446.316 426.043L466.677 414.398L446.726 428.163L385.469 391.19L357.381 405.371L384.704 389.529V361.113Z" fill="#003366"/>
<path d="M61.203 255.648L81.5748 244.598L84.1595 244.445L61.968 257.276L60.0718 257.052L59.5855 228.145C59.3396 227.292 46.1263 220.724 44.5143 219.057C43.8148 218.336 43.5525 217.91 43.7219 216.855L59.9352 226.035L73.225 219.587L61.203 227.232V255.648Z" fill="#003366"/>
<path d="M91.2523 393.906L54.2683 416.743L37.7052 406.693C36.1642 406.202 35.1752 407.442 33.6068 407.595C28.7653 408.076 26.0931 404.12 27.9948 399.764C32.1478 393.66 41.2463 398.83 37.1533 405.371L53.8256 415.016L91.2523 393.901V393.906ZM36.2954 402.371C36.2954 400.42 34.7107 398.835 32.7598 398.835C30.809 398.835 29.2243 400.42 29.2243 402.371C29.2243 404.322 30.809 405.906 32.7598 405.906C34.7107 405.906 36.2954 404.322 36.2954 402.371Z" fill="#003366"/>
<path d="M338.791 508.656L327.419 501.465L327.599 488.984L337.987 482.64C338.561 482.64 347.392 487.558 348.075 488.186C350.233 490.17 348.993 498.465 348.906 501.547L338.791 508.656ZM346.998 488.989L337.976 484.651L329.512 489.252L337.971 494.416L346.993 488.989H346.998ZM347.545 491.17L338.015 496.088L328.965 490.623V500.186L337.987 506.837L347.545 500.733V491.17Z" fill="#003366"/>
<path d="M216.396 139.794L164.619 109.843C162.472 109.389 154.8 115.258 152.084 116.209C151.204 116.515 151.198 117.313 150.286 116.034L164.619 108.209L215.254 137.942L216.396 139.799V139.794Z" fill="#003366"/>
<path d="M39.1232 174.837L37.7537 177.176L74.3896 198.627L75.7591 196.289L39.1232 174.837Z" fill="#003366"/>
<path d="M342.075 334.889C342.938 335.649 339.769 337.54 339.299 337.846C337.949 338.742 327.829 344.704 327.14 344.6L306.905 332.07L305.462 329.419L327.14 341.873L342.064 334.884L342.075 334.889Z" fill="#003366"/>
<path d="M368.621 107.86C368.621 111.324 365.813 114.127 362.354 114.127C358.894 114.127 356.086 111.319 356.086 107.86C356.086 104.401 358.894 101.592 362.354 101.592C365.813 101.592 368.621 104.401 368.621 107.86ZM366.25 107.849C366.25 105.701 364.507 103.958 362.359 103.958C360.211 103.958 358.468 105.701 358.468 107.849C358.468 109.996 360.211 111.739 362.359 111.739C364.507 111.739 366.25 109.996 366.25 107.849Z" fill="#003366"/>
<path d="M85.5309 54.5418C85.5309 57.9572 82.7604 60.7277 79.345 60.7277C75.9297 60.7277 73.1592 57.9572 73.1592 54.5418C73.1592 51.1265 75.9297 48.356 79.345 48.356C82.7604 48.356 85.5309 51.1265 85.5309 54.5418ZM83.3669 54.5637C83.3669 52.3615 81.58 50.58 79.3833 50.58C77.1865 50.58 75.3996 52.3669 75.3996 54.5637C75.3996 56.7604 77.1865 58.5473 79.3833 58.5473C81.58 58.5473 83.3669 56.7604 83.3669 54.5637Z" fill="#003366"/>
<path d="M262.074 85.1489H260.112V125.324H262.074V85.1489Z" fill="#003366"/>
<path d="M221.418 37.0883C221.418 39.8916 219.145 42.1648 216.341 42.1648C213.538 42.1648 211.265 39.8916 211.265 37.0883C211.265 34.285 213.538 32.0117 216.341 32.0117C219.145 32.0117 221.418 34.285 221.418 37.0883ZM219.303 37.0992C219.303 35.5145 218.019 34.2249 216.429 34.2249C214.838 34.2249 213.554 35.509 213.554 37.0992C213.554 38.6894 214.838 39.9736 216.429 39.9736C218.019 39.9736 219.303 38.6894 219.303 37.0992Z" fill="#003366"/>
<path d="M181.964 311.392C182.122 312.725 180.62 313.2 179.734 313.801C173.701 317.9 163.171 324.135 156.652 327.326C155.559 327.862 154.554 328.976 153.554 327.507L181.964 311.392Z" fill="#003366"/>
<path d="M492.716 424.803C492.716 427.453 490.568 429.601 487.918 429.601C485.268 429.601 483.12 427.453 483.12 424.803C483.12 422.152 485.268 420.005 487.918 420.005C490.568 420.005 492.716 422.152 492.716 424.803ZM490.628 424.792C490.628 423.311 489.432 422.114 487.951 422.114C486.47 422.114 485.273 423.311 485.273 424.792C485.273 426.273 486.47 427.469 487.951 427.469C489.432 427.469 490.628 426.273 490.628 424.792Z" fill="#003366"/>
<path d="M478.983 431.065L480.328 431.89L467.945 440.273L456.289 432.967L457.404 431.835L468.043 438.529L478.983 431.065Z" fill="#003366"/>
<path d="M26.1535 204.445C26.1535 206.866 24.1917 208.833 21.7655 208.833C19.3392 208.833 17.3774 206.871 17.3774 204.445C17.3774 202.019 19.3392 200.057 21.7655 200.057C24.1917 200.057 26.1535 202.019 26.1535 204.445ZM24.1043 204.549C24.1043 203.27 23.066 202.232 21.7873 202.232C20.5086 202.232 19.4704 203.27 19.4704 204.549C19.4704 205.828 20.5086 206.866 21.7873 206.866C23.066 206.866 24.1043 205.828 24.1043 204.549Z" fill="#003366"/>
<path d="M157.373 282.429C157.608 283.55 156.816 283.697 156.116 284.173C153.078 286.227 144.745 290.222 141.187 291.648C140.395 291.965 139.75 292.451 138.799 292.26C137.657 291.222 143.253 288.561 143.799 288.249C145.674 287.167 156.144 281.391 157.373 282.429Z" fill="#003366"/>
<path d="M132.095 293.457C133.084 293.244 134.046 293.255 135.002 293.594C139.16 294.971 134.925 300.933 130.619 299.075L128.942 296.873C128.805 295.381 130.74 293.752 132.095 293.457Z" fill="#003366"/>
<path d="M122.405 144.712C114.422 141.379 107.362 136.122 99.6019 132.291L98.9133 130.51L122.405 144.707V144.712Z" fill="#003366"/>
<path d="M390.72 54.0065C390.174 52.8207 390.419 51.0775 390.037 50.0393C389.452 48.4491 386.556 47.6239 388.49 44.9518C390.425 42.2796 393.573 44.4108 393.491 47.1977C393.441 48.8863 392.234 49.0502 391.922 50.0229C391.512 51.307 392.419 53.4273 390.725 54.0065H390.72Z" fill="#003366"/>
<path d="M459.376 473.918C459.376 475.864 457.797 477.443 455.852 477.443C453.906 477.443 452.327 475.864 452.327 473.918C452.327 471.973 453.906 470.394 455.852 470.394C457.797 470.394 459.376 471.973 459.376 473.918ZM457.721 473.847C457.721 472.82 456.885 471.984 455.857 471.984C454.83 471.984 453.994 472.82 453.994 473.847C453.994 474.874 454.83 475.711 455.857 475.711C456.885 475.711 457.721 474.874 457.721 473.847Z" fill="#003366"/>
<path d="M183.527 155.024L167.215 163.838C167.013 162.625 168.909 161.827 169.773 161.21C174.024 158.188 178.833 156.057 183.336 153.461L183.527 155.024Z" fill="#003366"/>
<path d="M472.546 410.977C474.448 412.879 471.743 416.387 469.404 416.3L468.939 410.928L472.541 410.983L472.546 410.977Z" fill="#003366"/>
<path d="M183.603 96.0888C185.062 97.6571 177.816 100.909 176.505 101.001C175.472 100.056 183.264 95.7227 183.603 96.0888Z" fill="#003366"/>
<path d="M389.664 90.5116L389.461 94.3643L392.834 94.5416L393.036 90.6889L389.664 90.5116Z" fill="#003366"/>
<path d="M48.0824 266.042L47.5469 267.408L46.7381 267.686L42.6343 264.665C44.4157 262.43 46.0879 265.872 48.0824 266.042Z" fill="#003366"/>
<path d="M66.1262 279.681L67.3885 278.118L71.0388 281.047C69.3995 283.173 67.9241 279.834 66.1262 279.681Z" fill="#003366"/>
<path d="M62.8365 276.408C61.1097 276.533 57.4922 275.402 57.9239 273.134C58.6616 272.413 63.1425 274.686 62.8365 276.408Z" fill="#003366"/>
<path d="M75.1649 79.4318L73.6965 81.1743L77.0186 83.9737L78.487 82.2312L75.1649 79.4318Z" fill="#003366"/>
<path d="M25.2297 52.8481C26.1592 52.8481 26.9128 52.0946 26.9128 51.165C26.9128 50.2355 26.1592 49.4819 25.2297 49.4819C24.3002 49.4819 23.5466 50.2355 23.5466 51.165C23.5466 52.0946 24.3002 52.8481 25.2297 52.8481Z" fill="#003366"/>
<path d="M261.713 67.7008C262.402 68.6407 262.484 72.3894 260.391 71.4877C259.036 70.5806 259.637 69.2308 260.063 67.9849L261.708 67.6953L261.713 67.7008Z" fill="#003366"/>
<path d="M93.5254 94.3732L94.2795 92.2529L97.2686 94.7065C96.0773 96.4278 94.8751 94.8978 93.5254 94.3732Z" fill="#003366"/>
<path d="M22.5387 250.63L21.604 252.076L25.9403 254.88L26.875 253.434L22.5387 250.63Z" fill="#003366"/>
<path d="M50.279 268.768C52.1588 268.741 53.9512 269.883 55.1807 271.222C54.0933 273.325 49.432 269.533 50.279 268.768Z" fill="#003366"/>
<path d="M181.417 347.993L178.679 345.824L177.335 346.911C175.685 345.955 174.505 345.294 174.871 343.081L181.417 347.993Z" fill="#003366"/>
<path d="M87.3011 87.4493L87.4323 88.9739C86.8858 89.5477 83.1644 87.799 83.6125 86.2471L87.3011 87.4438V87.4493Z" fill="#003366"/>
<path d="M39.7601 261.222L39.8912 262.746C39.3448 263.32 35.6234 261.571 36.0715 260.02L39.7601 261.216V261.222Z" fill="#003366"/>
<path d="M36.6123 214.582C37.415 214.582 38.0658 213.931 38.0658 213.128C38.0658 212.326 37.415 211.675 36.6123 211.675C35.8095 211.675 35.1587 212.326 35.1587 213.128C35.1587 213.931 35.8095 214.582 36.6123 214.582Z" fill="#003366"/>
<path d="M62.0936 169.057C62.9085 169.057 63.569 168.396 63.569 167.581C63.569 166.767 62.9085 166.106 62.0936 166.106C61.2787 166.106 60.6182 166.767 60.6182 167.581C60.6182 168.396 61.2787 169.057 62.0936 169.057Z" fill="#003366"/>
<path d="M262.839 51.2631L260.402 52.3725L259.571 50.1866L261.932 49.6948L262.839 51.2631Z" fill="#003366"/>
<path d="M149.455 496.672C150.234 496.672 150.865 496.041 150.865 495.262C150.865 494.484 150.234 493.853 149.455 493.853C148.677 493.853 148.045 494.484 148.045 495.262C148.045 496.041 148.677 496.672 149.455 496.672Z" fill="#003366"/>
<path d="M482.519 46.9082L481.983 48.8263C479.77 49.6077 479.448 49.1815 479.847 46.9683L482.519 46.9082Z" fill="#003366"/>
<path d="M392.348 102.094L392.354 104.827L390.174 104.821L390.43 102.63L392.348 102.094Z" fill="#003366"/>
<path d="M484.699 103.187L485.016 104.832L481.973 105.914C481.497 104.182 483.339 103.46 484.699 103.187Z" fill="#003366"/>
<path d="M141.526 500.465C142.083 502.744 139.87 502.58 138.253 502.645L141.526 500.465Z" fill="#003366"/>
<path d="M484.153 369.862C484.65 371.764 482.377 372.54 480.88 372.589C480.415 371.299 483.721 369.403 484.153 369.862Z" fill="#003366"/>
<path d="M472.688 377.501C471.89 376.747 475.584 373.693 475.961 375.6C476.196 376.807 473.677 377.698 472.688 377.501Z" fill="#003366"/>
<path d="M460.109 384.617C460.508 386.677 458.491 387.404 456.835 387.343C456.06 386.66 459.688 384.163 460.109 384.617Z" fill="#003366"/>
<path d="M11.4701 245.26C11.1259 245.593 6.66679 243.325 7.65041 242.533C8.78703 241.932 12.3171 244.435 11.4701 245.26Z" fill="#003366"/>
<path d="M451.376 202.637C450.393 201.571 453.562 198.675 454.639 200.729L451.376 202.637Z" fill="#003366"/>
<path d="M30.607 170.953L34.4157 172.86C33.383 174.985 29.8802 171.63 30.607 170.953Z" fill="#003366"/>
<path d="M457.388 198.265C456.59 197.51 460.284 194.456 460.661 196.363C460.896 197.571 458.377 198.461 457.388 198.265Z" fill="#003366"/>
<path d="M467.213 191.718C467.677 193.008 464.371 194.904 463.939 194.445C463.442 192.543 465.715 191.767 467.213 191.718Z" fill="#003366"/>
<path d="M477.607 185.15C476.809 184.396 480.503 181.341 480.88 183.248C481.115 184.456 478.596 185.347 477.607 185.15Z" fill="#003366"/>
<path d="M487.978 178.057C488.967 179.123 485.617 181.899 484.716 179.964L487.978 178.057Z" fill="#003366"/>
<path d="M261.746 75.8696L260.932 79.6784C259.801 79.6565 259.484 75.4325 261.746 75.8696Z" fill="#003366"/>
<path d="M30.7283 255.553L29.7983 257.015L32.4954 258.731L33.4253 257.269L30.7283 255.553Z" fill="#003366"/>
<path d="M18.027 249.631L15.9833 248.697L15.3057 246.91L18.027 249.631Z" fill="#003366"/>
<path d="M213.401 62.2031L215.592 63.2796C216.275 66.9627 211.057 62.531 213.401 62.2031Z" fill="#003366"/>
<path d="M444.819 156.199H446.174C448.77 157.177 444.721 161.734 444.819 156.199Z" fill="#003366"/>
<path d="M192.346 91.1703C193.068 91.8534 189.696 94.9682 189.079 93.072C188.729 92.0009 192.035 90.8752 192.346 91.1703Z" fill="#003366"/>
<path d="M256.238 86.3017L255.462 87.8973L253.014 85.7061L256.238 86.3017Z" fill="#003366"/>
<path d="M445.901 176.27C446.586 176.27 447.142 175.715 447.142 175.03C447.142 174.344 446.586 173.789 445.901 173.789C445.216 173.789 444.661 174.344 444.661 175.03C444.661 175.715 445.216 176.27 445.901 176.27Z" fill="#003366"/>
<path d="M22.9563 166.035L26.2186 167.395C25.0984 169.598 22.2295 166.712 22.9563 166.035Z" fill="#003366"/>
<path d="M342.086 2.63412C341.031 1.47017 344.386 -0.84133 345.348 0.726994L342.086 2.63412Z" fill="#003366"/>
<path d="M307.386 21.7822C308.943 21.9297 307.692 24.7603 306.298 24.498C304.462 24.1538 306.353 21.6838 307.386 21.7822Z" fill="#003366"/>
<path d="M445.901 184.467C446.586 184.467 447.142 183.911 447.142 183.226C447.142 182.541 446.586 181.986 445.901 181.986C445.216 181.986 444.661 182.541 444.661 183.226C444.661 183.911 445.216 184.467 445.901 184.467Z" fill="#003366"/>
<path d="M473.531 186.661L470.564 188.898L471.505 190.146L474.472 187.908L473.531 186.661Z" fill="#003366"/>
<path d="M445.901 150.587C446.586 150.587 447.142 150.031 447.142 149.346C447.142 148.661 446.586 148.106 445.901 148.106C445.216 148.106 444.661 148.661 444.661 149.346C444.661 150.031 445.216 150.587 445.901 150.587Z" fill="#003366"/>
<path d="M491.354 364.372L488.387 366.609L489.328 367.857L492.295 365.619L491.354 364.372Z" fill="#003366"/>
<path d="M209.256 80.6392L206.775 82.1216L207.674 83.6275L210.156 82.1452L209.256 80.6392Z" fill="#003366"/>
<path d="M130.597 507.022L130.28 508.705L127.875 509.202C127.788 507.743 129.209 506.814 130.602 507.022H130.597Z" fill="#003366"/>
<path d="M463.398 458.934L466.661 460.295C465.759 462.257 462.65 459.612 463.398 458.934Z" fill="#003366"/>
<path d="M204.926 58.9131L205.199 57.8257C206.527 57.6235 207.412 58.1535 208.188 59.1973C207.03 60.9186 206.221 59.0224 204.926 58.9131Z" fill="#003366"/>
<path d="M449.737 392.256C449.212 391.081 452.338 389.366 452.458 389.529L451.961 391.486L449.737 392.262V392.256Z" fill="#003366"/>
<path d="M500 331.61V332.414L498.634 333.791L497.279 332.96V332.157L500 331.61Z" fill="#003366"/>
<path d="M456.946 25.0015L454.336 26.3076L455.114 27.8615L457.723 26.5554L456.946 25.0015Z" fill="#003366"/>
<path d="M234.97 75.8591L232.249 75.3126V74.5093L233.604 73.6787L234.97 75.0558V75.8591Z" fill="#003366"/>
<path d="M290.161 32.1537L289.631 34.0772L287.429 34.3286C287.801 33.0117 288.664 32.0608 290.156 32.1537H290.161Z" fill="#003366"/>
<path d="M59.5578 71.4874L56.8364 70.1158V69.3125L59.5578 70.6841V71.4874Z" fill="#003366"/>
<path d="M490.175 100.45L490.426 99.3458L492.087 98.2856L492.896 99.0999L492.016 100.389L490.175 100.45Z" fill="#003366"/>
<path d="M419.136 471.486C419.628 469.874 422.409 470.776 422.409 472.306L419.136 471.486Z" fill="#003366"/>
<path d="M250.828 57.2799V55.9247L251.648 55.105H252.73L253.544 55.9192L250.828 57.2799Z" fill="#003366"/>
<path d="M468.306 379.698L467.989 381.381L465.584 381.879C465.076 380.709 467.956 379.305 468.311 379.698H468.306Z" fill="#003366"/>
<path d="M222.948 68.7553C221.374 68.6788 219.729 68.6296 220.221 66.5749C220.582 66.1924 223.418 67.5421 222.948 68.7553Z" fill="#003366"/>
<path d="M120.214 513.58V514.389C119.493 515.329 118.75 515.974 117.488 515.76L117.744 514.657L120.214 513.58Z" fill="#003366"/>
<path d="M280.872 39.2464L278.151 39.7929L278.402 38.689L280.063 37.6289L280.872 39.2464Z" fill="#003366"/>
<path d="M237.702 64.9411V65.7499L236.33 67.1215L234.986 66.3018C235.729 65.3728 236.439 64.7171 237.702 64.9411Z" fill="#003366"/>
<path d="M216.401 78.5915V77.7827L217.773 76.4111L219.117 77.2308C218.374 78.1598 217.663 78.8155 216.401 78.5915Z" fill="#003366"/>
<path d="M68.3009 76.9522L66.1206 76.6844L65.5796 75.3237L67.7599 75.5915L68.3009 76.9522Z" fill="#003366"/>
<path d="M18.027 163.292C16.7647 163.505 16.0215 162.86 15.3057 161.92V161.111L17.7756 162.188L18.0325 163.292H18.027Z" fill="#003366"/>
<path d="M199.456 53.4712L199.45 55.0942L196.729 53.728L199.456 53.4712Z" fill="#003366"/>
<path d="M245.899 60.0225L245.647 61.1263L243.986 62.1864L243.177 61.3722V60.5689L245.899 60.0225Z" fill="#003366"/>
<path d="M446.032 141.914C446.666 141.914 447.18 141.4 447.18 140.767C447.18 140.133 446.666 139.619 446.032 139.619C445.398 139.619 444.885 140.133 444.885 140.767C444.885 141.4 445.398 141.914 446.032 141.914Z" fill="#003366"/>
<path d="M89.6238 127.226L90.4325 125.608L92.3397 126.958L91.52 127.778L89.6238 127.226Z" fill="#003366"/>
<path d="M190.181 48.2624L189.069 49.3604L190.704 51.017L191.816 49.9191L190.181 48.2624Z" fill="#003366"/>
<path d="M247.003 81.8811C248.265 81.6625 248.975 82.3183 249.719 83.2418L248.915 84.0451L247.254 82.985L247.003 81.8811Z" fill="#003366"/>
<path d="M493.976 173.385L492.341 175.042L493.453 176.14L495.088 174.483L493.976 173.385Z" fill="#003366"/>
<path d="M497.268 261.118L497.016 262.222L495.093 263.299L495.35 261.648L497.268 261.118Z" fill="#003366"/>
<path d="M490.164 264.943L489.907 266.042L487.442 267.124L487.699 266.02L490.164 264.943Z" fill="#003366"/>
<path d="M229.505 71.4873H227.325L227.33 69.8589H228.685L229.505 71.4873Z" fill="#003366"/>
<path d="M298.905 27.7822L298.37 29.1484L296.178 29.4107L297.277 28.0555L298.905 27.7822Z" fill="#003366"/>
<path d="M438.251 482.421H437.447L436.081 481.06L436.901 480.246L438.251 481.066V482.421Z" fill="#003366"/>
<path d="M460.109 118.494C460.606 118.985 458.939 121.04 457.928 120.674L457.983 119.1L460.103 118.494H460.109Z" fill="#003366"/>
<path d="M325.687 13.5633C323.861 14.0715 323.228 14.924 323.506 12.4868L324.872 11.9458L325.687 13.5633Z" fill="#003366"/>
<path d="M476.508 110.832C474.683 111.34 474.049 112.193 474.328 109.755L475.694 109.214L476.508 110.832Z" fill="#003366"/>
<path d="M436.622 133.237L436.617 131.608L437.983 131.067L438.792 131.876L437.425 133.237H436.622Z" fill="#003366"/>
<path d="M499.453 360.573L498.634 362.201H497.279L498.098 360.573H499.453Z" fill="#003366"/>
<path d="M2.73227 154.002L0.54099 153.74L0 152.374C0.48088 151.904 3.13665 153.713 2.72681 154.002H2.73227Z" fill="#003366"/>
<path d="M9.83065 158.374H8.47544L7.65576 156.745H9.01097L9.83065 158.374Z" fill="#003366"/>
<path d="M50.2738 65.4761L47.5415 64.9242L47.547 63.8477L49.1809 64.1154L50.2738 65.4761Z" fill="#003366"/>
<path d="M414.753 467.667H413.398L412.578 466.038H413.933L414.753 467.667Z" fill="#003366"/>
<path d="M429.513 475.88L429.507 476.956L428.682 476.978L426.781 475.328L429.513 475.88Z" fill="#003366"/>
<path d="M466.125 21.2133L463.945 21.7598V20.9565L465.305 19.5903L466.125 21.2133Z" fill="#003366"/>
<path d="M2.73218 240.336L4.04367 239.292L5.45352 240.62L4.64477 241.429L2.73218 240.336Z" fill="#003366"/>
<path d="M445.235 52.4543C446.021 52.3286 446.251 52.3997 446.961 52.651C449.552 53.5527 456.825 57.9571 459.732 59.5855C463.12 61.4872 473.049 66.8916 475.399 69.0556C476.12 69.7168 476.612 70.0665 476.535 71.1977L476.229 105.919L446.732 123.187L416.912 105.69L416.671 69.307L445.235 52.4598V52.4543ZM473.229 70.9409L446.18 55.1429L419.671 70.1321L446.262 86.1268L473.229 70.9354V70.9409ZM445.36 87.8864L418.584 72.5857V104.007L445.36 119.581V87.8864ZM474.322 73.1321C465.169 77.8699 456.076 82.8973 447.546 88.7061V120.127L474.322 104.007V73.1321Z" fill="#003366"/>
<path d="M273.774 88.7062L306.326 68.7661C306.457 62.0173 305.124 53.1539 305.987 46.6073C306.113 45.651 306.184 44.9789 307.124 44.4652L325.463 34.334L344.272 44.4434L344.529 67.6677C344.179 68.4928 331.151 76.1869 329.326 77.0558C328.086 77.6459 326.813 78.6022 325.392 78.6514C321.632 78.7826 310.665 69.0284 308.195 69.542L275.413 89.8045V122.045L274.593 122.854L273.774 122.045V88.7116V88.7062ZM340.988 45.8041L325.512 36.6236L309.299 45.274C308.736 46.0172 324.2 53.744 325.419 54.52L340.993 45.8041H340.988ZM308.2 47.4489V67.1212L324.588 75.859C323.293 72.4929 324.649 69.4273 324.638 66.3015C324.632 63.3507 323.517 60.0283 324.288 56.7386L308.2 47.4489ZM326.78 75.8645L342.08 66.848V47.4489L326.78 56.1921V75.8645Z" fill="#003366"/>
<path d="M242.483 118.898L227.598 127.286L212.03 118.215L211.571 97.8154L227.604 89.0229C228.44 89.0229 241.145 96.5859 242.052 97.4821C242.959 98.3782 243.019 98.269 243.199 99.6132C243.675 103.198 243.522 112.291 243.194 116.056C243.112 116.98 243.128 118.182 242.483 118.898ZM214.21 98.2799L227.134 106.318L240.975 99.0886L227.139 90.7115L214.21 98.2799ZM226.232 123.952V108.378C222.609 104.684 217.319 103.346 213.117 100.455V116.029L226.232 123.952ZM228.418 108.105V125.045L241.024 116.613C241.642 111.684 241.511 106.22 241.533 101.007L228.423 108.105H228.418Z" fill="#003366"/>
<path d="M119.673 161.117L141.635 191.336C144.657 198.768 138.827 208.101 134.581 214.123C131.389 213.571 128.963 215.659 126.111 216.456C118.668 218.538 114.231 218.954 108.755 212.735C101.826 204.866 96.5036 193.97 89.0773 186.243C80.5472 211.609 91.4927 238.314 120.018 241.364C130.007 242.429 139.171 240.2 147.209 248.052C165.996 272.555 185.543 296.556 204.04 321.277C207.406 325.774 219.669 341.086 220.226 345.523C220.822 350.261 218.642 355.491 218.549 360.267C218.21 377.759 233.631 388.928 250.27 385.699L232.888 365.092C232.243 362.917 236.587 352.267 238.401 351.152C240.084 350.114 248.527 347.534 250.259 348.283L270.221 368.764C275.374 356.174 269.981 339.19 256.822 334.075C251.183 331.884 243.718 332.152 238.614 328.785C236.953 327.687 229.86 319.807 230.052 318.233L231.516 317.84C235.325 320.266 238.347 324.742 242.418 326.621C247.254 328.851 253.374 328.813 258.462 330.796C274.221 336.928 280.353 358.829 271.582 372.895C270.746 373.414 269.697 372.95 269.014 372.414C266.309 370.31 262.227 364.622 259.576 361.917C255.888 358.157 252.139 354.431 248.287 350.84L239.478 353.589L235.604 363.163L254.932 385.649L254.276 387.382C232.975 395.048 214.035 381.502 215.281 358.633C215.964 346.053 218.45 347.119 210.609 336.026C189.904 306.747 166.078 279.397 144.548 250.719C136.499 243.566 125.056 246.254 115.171 244.577C89.0992 240.162 77.5144 213.937 83.5363 189.729C84.0718 187.576 86.1647 179.456 89.356 181.287C97.2741 189.587 103.22 201.183 110.952 209.456C118.684 217.73 124.804 213.101 133.367 209.899C135.34 205.882 139.745 198.959 138.548 194.429C137.843 191.751 129.93 181.494 127.772 178.429C124.755 174.144 117.865 166.516 115.93 162.407C113.362 156.942 119.701 156.538 123.952 155.827C149.471 151.57 175.002 174.565 172.078 200.675C171.592 205.008 168.991 209.691 168.455 213.992C167.067 225.096 176.242 233.194 182.783 240.91L182.822 243.664L180.718 244.091C179.761 243.817 169.373 230.604 168.182 228.735C160.892 217.281 165.718 214.21 167.63 203.341C172.401 176.243 145.734 153.527 119.673 161.128V161.117Z" fill="#0073E6"/>
<path d="M190.161 279.687C188.625 279.998 188.062 278.719 187.117 277.812C178.854 269.894 163.75 250.331 157.472 240.522C156.543 239.069 155.422 237.899 155.739 235.976C157.39 235.697 158.33 237.151 159.291 238.156C165.663 244.796 185.592 269.747 189.532 277.315C189.942 278.102 190.324 278.747 190.155 279.692L190.161 279.687Z" fill="#0073E6"/>
<path d="M202.183 268.758C200.642 269.025 200.084 268.031 199.177 267.129C197.735 265.692 194.177 261.659 193.155 260.036C192.702 259.315 192.057 258.987 192.352 257.839C193.308 256.828 203.866 266.943 202.183 268.763V268.758Z" fill="#0073E6"/>
<path d="M333.884 152.373L314.479 140.991L308.933 145.745L307.659 144.958C307.25 143.351 312.66 137.138 314.752 137.838C326.627 145.603 341.337 150.029 348.54 163.139L340.113 182.986L344.813 199.909C348.288 200.095 356.245 194.8 358.409 198.603C359.021 199.685 359.452 204.112 359.556 205.653C359.737 208.237 359.955 216.975 359.152 218.893L344.37 228.156L335.725 251.544C336.693 255.325 343.95 263.14 343.053 266.697C342.769 267.834 330.13 284.686 328.988 285.451C325.146 288.025 318.468 281.145 314.19 280.49C308.878 286.468 302.364 291.074 295.599 295.238L291.523 313.566C290.348 314.796 279.49 317.299 277.337 317.408C275.665 317.495 272.173 317.883 271.654 315.905L271.85 302.637L255.588 298.921L236.916 315.222L199.68 287.927L198.877 286.484L206.44 269.992C206.893 267.845 203.407 265.156 205.724 263.304C207.336 264.697 209.484 267.85 209.27 270.063C208.97 273.178 202.309 281.413 201.789 285.43C201.937 287.43 219.227 296.889 222.047 298.189L232.659 280.402L227.254 263.347C212.861 264.839 202.631 255.954 190.718 249.883C189.784 249.364 189.707 248.697 189.582 247.741C189.035 243.664 191.352 233.937 191.784 229.128C192.046 226.216 191.287 223.117 192.205 220.259C193.751 216.423 204.216 214.533 207.964 213.615C208.653 213.095 213.292 198.855 213.516 197.308C214.44 190.898 209.85 183.931 208.265 177.893L227.877 154.264C228.626 153.756 229.287 154.051 230.052 154.237C232.118 154.74 238.987 158.647 241.342 159.915C244.533 161.63 248.304 163.794 251.309 165.794C256.577 169.303 260.954 173.969 266.435 176.958L284.555 166.98L289.359 147.45L265.828 135.422C263.763 139.892 264.145 150.352 261.451 153.98C260.375 155.434 248.741 163.374 247.533 162.188C247.342 161.144 247.708 160.707 248.315 159.969C250.315 157.532 258.003 153.925 259.255 151.783L263.353 133.477C270.665 128.51 274.861 130.171 282.157 133.308C290.009 136.69 297.971 141.384 305.501 145.483L305.457 161.374L306.386 162.636L320.938 165.958C324.906 161.073 328.556 155.909 333.878 152.363L333.884 152.373ZM356.288 217.669V201.276C356.288 201.062 355.573 200.45 355.737 199.904L343.567 203.101C341.72 202.571 340.993 194.827 340.398 192.571C339.48 189.095 337.616 185.784 337.682 182.15L345.704 164.117L337.157 154.242H336.075L322.244 168.592L320.616 169.117L303.042 164.352C300.741 161.45 303.692 150.854 302.736 146.893C300.053 147.242 292.905 148.57 291.758 150.942C290.271 154.018 287.703 168.461 286.315 169.543C278.889 171.581 273.096 176.51 266.921 180.784L254.921 172.035L238.407 190.942L244.151 207.669C239.795 214.713 235.998 222.188 233.921 230.26L219.38 235.391L216.478 259.375L230.123 260.861C230.773 263.539 230.987 266.315 231.735 268.976C232.62 272.118 235.823 278.353 235.506 280.987C234.937 285.675 223.511 300.085 223.549 301.26L236.987 311.796L253.796 296.583L256.003 296.009L274.102 299.288C276.462 304.102 274.506 309.446 274.872 314.643L288.954 311.539L293.468 293.08C301.353 289.102 307.878 283.2 314.058 277.014C317.108 277.058 325.354 284.134 327.873 282.686L340.048 265.101L333.048 251.254L342.622 225.981L356.299 217.647L356.288 217.669ZM235.451 192.33C227.648 190.478 220.145 185.849 213.123 181.876C214.112 186.243 216.954 191.778 216.746 196.281C216.697 197.308 211.861 213.478 211.374 214.281C210.199 216.227 200.221 218.298 197.489 219.527C196.844 219.817 196.5 219.276 196.729 220.664C204.019 224.576 210.352 230.068 218.396 232.549L231.708 228.063C233.659 220.565 237.145 213.904 240.987 207.254L235.451 192.336V192.33Z" fill="#0073E6"/>
<path d="M294.419 187.494C303.441 186.395 311.069 188.904 316.955 195.8C341.37 224.39 299.572 293.462 263.451 274.44C230.954 257.325 260.451 191.63 294.419 187.499V187.494ZM294.408 190.762C264.921 194.549 236.954 250.544 262.894 270.079C282.692 284.992 307.801 259.872 315.397 242.352C323.834 222.899 324.343 186.915 294.408 190.762Z" fill="#0073E6"/>
<path d="M262.304 259.468C262.069 258.342 262.867 258.205 263.561 257.73C265.938 256.107 269.746 254.965 272.637 253.145C290.058 242.167 300.61 218.167 295.075 197.986L296.446 196.631C297.758 196.937 299.238 203.21 299.392 204.62C301.288 222.462 292.523 241.079 278.949 252.347C274.561 255.992 268.151 260.156 262.304 259.468Z" fill="#0073E6"/>
</svg>
